<?xml version="1.0" encoding="UTF-8"?>
<svg id="Layer_1" data-name="Layer 1" xmlns="http://www.w3.org/2000/svg" xmlns:xlink="http://www.w3.org/1999/xlink" viewBox="0 0 31.97 19.05">
  <defs>
    <style>
      .cls-1 {
        fill: #0d7bd6;
      }

      .cls-2 {
        fill: #ed1e25;
      }

      .cls-3 {
        clip-path: url(#clippath);
      }

      .cls-4 {
        fill: none;
      }

      .cls-5 {
        fill: #002629;
        font-family: Poppins-Light, Poppins;
        font-size: 1.28px;
      }

      .cls-6 {
        fill: #ea1c24;
        font-family: Poppins-Bold, Poppins;
        font-size: 6.69px;
      }

      .cls-7 {
        fill: #231f20;
      }
    </style>
    <clipPath id="clippath">
      <path class="cls-4" d="M8.1,13.66c-2.28-4.74-.3-10.43,4.44-12.72,4.74-2.29,10.43-.3,12.72,4.44,2.28,4.74,.29,10.43-4.44,12.72-4.74,2.29-10.43,.3-12.72-4.44Z"/>
    </clipPath>
  </defs>
  <g class="cls-3">
    <g>
      <path class="cls-2" d="M24.99,7.68c-.41,1.17-1.71,1.29-3.08,.33,.13,1.54,.38,3.05,.73,4.34,.89-.65,1.72-.68,2.02,.01,.27,.62-.02,1.75-.63,2.67,.19,.07,.4,0,.56-.22,.26-.36,1.15,.02,1.84-.07,1.39-.18,2.73-.81,3.77-1.89,2.42-2.52,2.34-6.55-.18-8.97-1.24-1.19-2.85-1.78-4.45-1.76-.4,0-.8,.05-1.2,.12-.39,.08-.87,.57-1.12,.32-.23-.23-.5-.28-.69-.13,.4,.27,.79,.62,1.15,1.05,1.07,1.27,1.65,3.14,1.28,4.19Zm.99,1.29c.09,.55,.06,1.43-.07,2.03-.15,.65-.39,.83-.53,.32-.16-.6-.12-1.72,.08-2.42,.18-.61,.41-.55,.52,.06Z"/>
      <path class="cls-7" d="M21.18,2.81c.5-.43,1.61,0,2.41,.95,.78,.92,1.18,2.22,.91,2.88-.35,.84-1.48,.62-2.53-.54-1.09-1.21-1.46-2.71-.79-3.29Z"/>
      <path class="cls-1" d="M11.15,9.02c.48-.77,1.42-.78,2.12,.04,.77,.89,.91,2.29,.29,3.05-.55,.68-1.55,.5-2.17-.36-.58-.81-.67-2.02-.24-2.73Z"/>
      <path class="cls-1" d="M22.37,13.61c.74-.88,1.58-1.12,1.88-.55,.24,.46-.04,1.43-.63,2.15-.6,.74-1.41,1.08-1.78,.77-.47-.4-.22-1.47,.53-2.37Z"/>
      <path class="cls-7" d="M15.85,8.69c1.12-1.16,3.16-1.03,4.44,.28,1.22,1.24,1.35,3.19,.31,4.3-1.05,1.11-3.01,1.06-4.31-.12-1.36-1.24-1.56-3.28-.44-4.45Z"/>
    </g>
  </g>
  <text class="cls-5" transform="translate(2.23 7.36) scale(.75 1)"><tspan x="0" y="0">Your connection to a better future.</tspan></text>
  <text class="cls-6" transform="translate(0 6.18) scale(1.03 1)"><tspan x="0" y="0">OASIS</tspan></text>
</svg>